# xmcd
#
# Track frame offsets:
#	150
#	18470
#	35454
#	47166
#	68186
#	89978
#	116086
#	132758
#	148322
#	164326
#
# Disc length: 2345 seconds
#
# Revision: 0
# Processed by: cddbd v1.4PL0 Copyright (c) Steve Scherf et al.
# Submitted via: EasyCDDAExtractor 5.0.5.1
#
DISCID=9609270a
DTITLE=Jerilee Henderson - The Old Rugged Cross
DYEAR=2002
DGENRE=Gospel
TTITLE0=The Old Rugged Cross
TTITLE1=In The Garden
TTITLE2=Just A Closer Walk
TTITLE3=Because He Lives
TTITLE4=How Great Thou Art
TTITLE5=His Eye Is On The Sparrow
TTITLE6=It Is Well With My Soul
TTITLE7=What A Friend We Have In Jesus
TTITLE8=Amazing Grace
TTITLE9=Oh How He loves You And Me
EXTD=
EXTT0=
EXTT1=
EXTT2=
EXTT3=
EXTT4=
EXTT5=
EXTT6=
EXTT7=
EXTT8=
EXTT9=
PLAYORDER=
